<?xml version="1.0" encoding="UTF-8"?>
<svg xmlns="http://www.w3.org/2000/svg" version="1.1" width="250" height="250" viewBox="0 0 250 250"><rect x="0" y="0" width="250" height="250" fill="#ffffff"/><g transform="scale(7.576)"><g transform="translate(0,0)"><path fill-rule="evenodd" d="M8 0L8 1L9 1L9 2L8 2L8 5L9 5L9 4L11 4L11 5L10 5L10 10L9 10L9 12L6 12L6 11L7 11L7 10L6 10L6 9L7 9L7 8L6 8L6 9L5 9L5 10L6 10L6 11L2 11L2 14L3 14L3 13L5 13L5 15L7 15L7 14L8 14L8 13L11 13L11 16L9 16L9 15L10 15L10 14L9 14L9 15L8 15L8 17L7 17L7 16L4 16L4 15L3 15L3 18L4 18L4 21L5 21L5 20L6 20L6 21L7 21L7 22L6 22L6 23L5 23L5 22L3 22L3 20L2 20L2 15L1 15L1 17L0 17L0 18L1 18L1 20L0 20L0 22L1 22L1 20L2 20L2 22L3 22L3 23L1 23L1 24L0 24L0 25L1 25L1 24L2 24L2 25L3 25L3 23L5 23L5 24L6 24L6 25L7 25L7 24L6 24L6 23L8 23L8 26L9 26L9 27L10 27L10 28L9 28L9 29L8 29L8 33L9 33L9 32L10 32L10 33L14 33L14 32L13 32L13 30L14 30L14 29L12 29L12 28L14 28L14 27L15 27L15 28L16 28L16 29L15 29L15 31L16 31L16 30L18 30L18 31L17 31L17 33L18 33L18 32L19 32L19 33L20 33L20 32L21 32L21 33L23 33L23 32L21 32L21 31L23 31L23 30L24 30L24 32L25 32L25 33L27 33L27 30L26 30L26 29L28 29L28 30L29 30L29 28L32 28L32 27L31 27L31 26L32 26L32 25L33 25L33 21L32 21L32 20L30 20L30 19L26 19L26 20L24 20L24 19L25 19L25 18L24 18L24 17L25 17L25 15L23 15L23 14L21 14L21 16L20 16L20 13L21 13L21 9L22 9L22 10L23 10L23 11L22 11L22 12L23 12L23 13L24 13L24 12L23 12L23 11L24 11L24 10L26 10L26 11L25 11L25 12L27 12L27 10L28 10L28 9L29 9L29 11L28 11L28 13L29 13L29 12L30 12L30 10L31 10L31 11L32 11L32 12L31 12L31 13L33 13L33 8L32 8L32 10L31 10L31 8L28 8L28 9L26 9L26 8L24 8L24 9L23 9L23 4L21 4L21 5L20 5L20 3L21 3L21 2L19 2L19 1L22 1L22 2L23 2L23 3L24 3L24 1L25 1L25 0L18 0L18 1L16 1L16 0L12 0L12 1L11 1L11 0L10 0L10 1L9 1L9 0ZM14 1L14 2L11 2L11 4L12 4L12 3L13 3L13 5L12 5L12 6L11 6L11 8L12 8L12 6L13 6L13 8L14 8L14 9L15 9L15 7L16 7L16 6L15 6L15 5L16 5L16 4L17 4L17 3L18 3L18 2L17 2L17 3L16 3L16 1ZM14 3L14 5L13 5L13 6L14 6L14 7L15 7L15 6L14 6L14 5L15 5L15 4L16 4L16 3ZM18 4L18 6L17 6L17 7L18 7L18 10L17 10L17 9L16 9L16 10L14 10L14 11L11 11L11 13L12 13L12 12L13 12L13 14L12 14L12 16L11 16L11 18L10 18L10 20L9 20L9 21L10 21L10 20L11 20L11 22L9 22L9 25L10 25L10 27L11 27L11 28L10 28L10 29L9 29L9 31L10 31L10 32L12 32L12 31L11 31L11 30L12 30L12 29L11 29L11 28L12 28L12 26L13 26L13 27L14 27L14 26L15 26L15 27L16 27L16 26L17 26L17 29L19 29L19 31L21 31L21 30L22 30L22 29L21 29L21 27L22 27L22 26L24 26L24 24L27 24L27 23L26 23L26 22L24 22L24 23L23 23L23 21L22 21L22 23L21 23L21 25L22 25L22 26L20 26L20 29L19 29L19 28L18 28L18 27L19 27L19 26L18 26L18 25L16 25L16 26L15 26L15 24L16 24L16 22L17 22L17 24L19 24L19 25L20 25L20 24L19 24L19 23L20 23L20 22L21 22L21 20L23 20L23 19L24 19L24 18L23 18L23 19L21 19L21 17L20 17L20 16L19 16L19 14L17 14L17 15L16 15L16 14L14 14L14 12L15 12L15 13L16 13L16 12L19 12L19 13L20 13L20 12L19 12L19 11L20 11L20 10L19 10L19 9L21 9L21 8L22 8L22 5L21 5L21 8L20 8L20 6L19 6L19 4ZM8 6L8 7L9 7L9 6ZM18 6L18 7L19 7L19 6ZM24 6L24 7L25 7L25 6ZM0 8L0 9L1 9L1 10L0 10L0 14L1 14L1 10L2 10L2 9L4 9L4 8ZM8 8L8 9L9 9L9 8ZM11 9L11 10L12 10L12 9ZM16 10L16 11L17 11L17 10ZM6 13L6 14L7 14L7 13ZM25 13L25 14L26 14L26 13ZM13 14L13 15L14 15L14 18L13 18L13 21L15 21L15 19L16 19L16 18L17 18L17 21L18 21L18 20L19 20L19 19L18 19L18 18L19 18L19 17L18 17L18 18L17 18L17 16L16 16L16 17L15 17L15 15L14 15L14 14ZM29 14L29 15L30 15L30 16L28 16L28 15L26 15L26 18L27 18L27 17L28 17L28 18L29 18L29 17L31 17L31 19L32 19L32 18L33 18L33 17L31 17L31 16L33 16L33 15L30 15L30 14ZM22 15L22 17L23 17L23 15ZM12 16L12 17L13 17L13 16ZM6 17L6 18L5 18L5 19L6 19L6 20L7 20L7 19L6 19L6 18L7 18L7 17ZM11 19L11 20L12 20L12 19ZM26 20L26 21L28 21L28 24L29 24L29 25L30 25L30 26L29 26L29 27L30 27L30 26L31 26L31 25L32 25L32 21L29 21L29 20ZM19 21L19 22L18 22L18 23L19 23L19 22L20 22L20 21ZM14 22L14 23L10 23L10 24L11 24L11 26L12 26L12 24L15 24L15 22ZM29 22L29 23L31 23L31 22ZM22 23L22 25L23 25L23 23ZM13 25L13 26L14 26L14 25ZM25 25L25 28L28 28L28 25ZM26 26L26 27L27 27L27 26ZM23 27L23 28L24 28L24 27ZM24 29L24 30L25 30L25 29ZM32 29L32 30L33 30L33 29ZM30 30L30 31L31 31L31 30ZM25 31L25 32L26 32L26 31ZM28 31L28 32L29 32L29 31ZM32 31L32 32L33 32L33 31ZM15 32L15 33L16 33L16 32ZM0 0L0 7L7 7L7 0ZM1 1L1 6L6 6L6 1ZM2 2L2 5L5 5L5 2ZM26 0L26 7L33 7L33 0ZM27 1L27 6L32 6L32 1ZM28 2L28 5L31 5L31 2ZM0 26L0 33L7 33L7 26ZM1 27L1 32L6 32L6 27ZM2 28L2 31L5 31L5 28Z" fill="#000000"/></g></g></svg>
